<?xml version="1.0" encoding="utf-8"?>
<!-- Generator: Adobe Illustrator 27.0.0, SVG Export Plug-In . SVG Version: 6.00 Build 0)  -->
<svg version="1.1" id="Ebene_1" xmlns="http://www.w3.org/2000/svg" xmlns:xlink="http://www.w3.org/1999/xlink" x="0px" y="0px"
	 viewBox="0 0 1240 234.8" style="enable-background:new 0 0 1240 234.8;" xml:space="preserve">
<style type="text/css">
	.st0{fill-rule:evenodd;clip-rule:evenodd;fill:#B51F7D;}
	.st1{fill-rule:evenodd;clip-rule:evenodd;fill:#003959;}
</style>
<g id="Page-1">
	<g id="_x31_-Logo-Full-Color">
		<g id="_x31_-Full-Color" transform="translate(100.000000, 107.000000)">
			<polygon id="Fill-1" class="st0" points="1087.1,-47.4 1038.3,6.3 1093.9,68.4 1140,68.4 1084.1,6.3 1132.7,-47.4 			"/>
			<polygon id="Fill-2" class="st1" points="1001,-107 1001,48 1038.3,6.3 1038.3,-107 			"/>
			<path id="Fill-3" class="st1" d="M-7.4-10.8c-9.1-7.5-18.4-8.8-24.4-8.8c-11.7,0-18.7,5.7-21.3,8.3c-4.9,4.9-8.6,12.5-8.6,21.8
				c0,8.6,3.1,15.8,7.8,20.8c5.7,6.2,14.3,9.3,22.6,9.3c6.5,0,15.3-1.8,23.9-9.1v33.7c-9.9,5.4-19.2,7-29.6,7
				c-19.5,0-34.2-7-44.9-17.4c-8.8-8.6-18.2-23.1-18.2-44.1c0-19.7,8.3-35.3,19.2-45.7c13-12.2,28.3-16.3,44.1-16.3
				c10.1,0,19.5,1.8,29.3,6.5V-10.8z"/>
			<path id="Fill-6" class="st1" d="M7.4-47.4h37.4v18.2c3.4-6.5,8.6-12.5,14.5-16.1c6.2-3.9,12.7-4.9,20-4.9c4.7,0,8,0.5,12.2,1.8
				l-2.1,35C84.5-16,79-17.5,72.5-17.5c-8,0-14,2.9-18.7,7.8c-8.3,8.8-9.1,21.3-9.1,31.1v47H7.4V-47.4z"/>
			<path id="Fill-8" class="st1" d="M180.9,32.3c-5.4,5.4-12.4,8.3-20.8,8.3c-9.9,0-16.6-3.6-21.3-8.3c-4.4-4.4-8.6-11.2-8.6-21.8
				c0-9.3,3.1-16.3,8.6-21.8c5.4-5.4,12.5-8.3,21-8.3c8.6,0,15.6,2.9,21,8.3c5.4,5.5,8.6,12.5,8.6,21.8
				C189.5,19.8,186.4,26.8,180.9,32.3 M210.5-32.6c-10.4-10.4-28-18.7-50.6-18.7c-22.6,0-40.2,8.3-50.6,18.7
				C97.6-20.9,91.9-4.3,91.9,10.5c0,14.8,5.7,31.4,17.4,43.1c10.4,10.4,28,18.7,50.6,18.7c22.6,0,40.2-8.3,50.6-18.7
				c11.7-11.7,17.4-28.3,17.4-43.1C227.9-4.3,222.2-20.9,210.5-32.6"/>
			<polygon id="Fill-10" class="st1" points="298.9,68.3 275.5,68.3 217.9,-47.4 258.9,-47.4 288.7,14.1 318.1,-48.9 337.8,-48.9 
				367.1,14.1 396.9,-47.4 437.9,-47.4 380.3,68.3 357,68.3 327.9,2.4 			"/>
			<path id="Fill-12" class="st1" d="M445.4-47.4h37.4v13.8c11.4-14.5,24.9-16.9,35.8-16.9c10.1,0,23.3,1.8,33.2,11.7
				c10.9,10.9,11.7,24.7,11.7,34v73.2h-37.4V8.9c0-7.5-0.3-17.1-6.2-23.1c-2.8-2.9-7.5-5.2-14.3-5.2c-7.8,0-12.7,3.1-15.6,6.2
				c-6.2,6.2-7.3,14.5-7.3,22v59.4h-37.4V-47.4z"/>
			<path id="Fill-14" class="st1" d="M662.9,32c-5.4,5.2-13,8-20,8c-8,0-15.8-3.4-21.3-8.8c-5.5-5.7-8.3-13.2-8.3-20.5
				c0-7,2.9-15.3,8.8-21.3c3.6-3.6,10.4-8.6,20.8-8.6c7.5,0,14.8,2.9,20.2,8c5.2,4.9,8.8,12.5,8.8,21
				C671.9,17.5,668.8,26.3,662.9,32 M692.9-34.9c-7.3-7.3-20.2-16.3-41-16.3c-8.8,0-23.9,1.8-36.1,17.6v-13.8h-37.4v175.1h37.4V55.1
				c3.9,5.4,13.8,17.1,36.8,17.1c15.3,0,27.8-4.2,39.2-15.6c11.4-11.4,18.4-26.5,18.4-46.4C710.3-8.7,703.3-24.5,692.9-34.9"/>
			<path id="Fill-17" class="st1" d="M939.4,32c-4.9,4.9-11.9,8-19.5,8c-8.8,0-16.9-3.6-22.1-9.1c-3.4-3.6-7.8-10.4-7.8-20.8
				c0-10.4,4.7-17.1,8.6-21c4.9-4.9,12.5-8.3,20.5-8.3c6.7,0,15.1,2.6,20.8,8c5.5,5.2,8.6,13,8.6,21.3
				C948.5,20.1,944.4,27.4,939.4,32L939.4,32z M946.2-47.4v13c-10.6-14.5-26.5-16.9-36.3-16.9c-16.1,0-30.1,5.7-40.2,15.8
				C859-24.8,851.7-8.2,851.7,11.3c0,15.3,4.7,30.4,16.9,43.3c12.7,13.5,26.7,17.6,43.3,17.6c9.6,0,24.1-2.3,34.2-17.9v14h37.4
				V-47.4H946.2z"/>
			<path id="Fill-19" class="st1" d="M763.9-17.8c3.6-3.6,9.3-7.5,18.9-7.5c7.5,0,13.5,2.6,17.6,6.5c5.5,5.2,7.3,12.5,7.5,13.5
				h-50.6C758.5-10.5,761.1-14.7,763.9-17.8 M797.4,40.6c-3.9,2.3-9.6,3.4-15,3.4c-5.7,0-13.5-1-19.2-7.3c-4.7-5.2-7-13.5-7-19.7
				h86.4v-3.9c0-14.3-2.6-32.4-16.4-47c-14.3-15.1-32.9-17.4-45.9-17.4c-13,0-30.4,2.6-44.4,16.6C724.2-22.7,718.3-5.6,718.3,11
				c0,19.2,7.3,34.5,17.4,44.6c13.5,13.5,28.8,16.6,46.2,16.6c13,0,25.4-1.8,36.6-8.6c5.9-3.6,14.5-10.6,20-23.1l-33-9.6
				C802.3,37.5,797.9,40.3,797.4,40.6"/>
		</g>
	</g>
</g>
</svg>
